<svg xmlns="http://www.w3.org/2000/svg" version="1.1" xmlns:xlink="http://www.w3.org/1999/xlink" xmlns:svgjs="http://svgjs.dev/svgjs" width="1000" height="1000" viewBox="0 0 1000 1000"><rect width="1000" height="1000" fill="#ffffff"></rect><g transform="matrix(0.7,0,0,0.7,149.57576550440228,376.53420045274856)"><svg viewBox="0 0 396 140" data-background-color="#282634" preserveAspectRatio="xMidYMid meet" height="353" width="1000" xmlns="http://www.w3.org/2000/svg" xmlns:xlink="http://www.w3.org/1999/xlink"><g id="tight-bounds" transform="matrix(1,0,0,1,0.23999551465240643,-0.04770563895104374)"><svg viewBox="0 0 395.5199999999999 140.0954112779021" height="140.0954112779021" width="395.5199999999999"><g><svg viewBox="0 0 667.786049815739 236.53357932489274" height="140.0954112779021" width="395.5199999999999"><g><rect width="10.848313568973804" height="205.3837157669112" x="233.01900962641497" y="15.574931778990774" fill="#000000" opacity="1" stroke-width="0" stroke="transparent" fill-opacity="1" class="rect-o-0" data-fill-palette-color="primary" rx="1%" id="o-0" data-palette-color="#7e22ce"></rect></g><g transform="matrix(1,0,0,1,272.26604981573905,32.69024142623337)"><svg viewBox="0 0 395.52 171.153096472426" height="171.153096472426" width="395.52"><g><svg viewBox="0 0 395.52 171.153096472426" height="171.153096472426" width="395.52"><g><svg viewBox="0 0 395.52 120.29484835540366" height="120.29484835540366" width="395.52"><g transform="matrix(1,0,0,1,0,0)"><svg width="395.52" viewBox="2.1500000953674316 -35 117.04999542236328 35.599998474121094" height="120.29484835540366" data-palette-color="#7e22ce"><path d="M18.15-35Q24.75-35 29-32.33 33.25-29.65 33.35-24.4L33.35-24.4 33.35-23.8 23-23.8 23-24Q23-25.5 21.9-26.5 20.8-27.5 18.55-27.5L18.55-27.5Q16.35-27.5 15.18-26.85 14-26.2 14-25.25L14-25.25Q14-23.9 15.6-23.25 17.2-22.6 20.75-21.9L20.75-21.9Q24.9-21.05 27.58-20.13 30.25-19.2 32.25-17.1 34.25-15 34.3-11.4L34.3-11.4Q34.3-5.3 30.18-2.35 26.05 0.6 19.15 0.6L19.15 0.6Q11.1 0.6 6.63-2.1 2.15-4.8 2.15-11.65L2.15-11.65 12.6-11.65Q12.6-9.05 13.95-8.18 15.3-7.3 18.15-7.3L18.15-7.3Q20.25-7.3 21.63-7.75 23-8.2 23-9.6L23-9.6Q23-10.85 21.48-11.48 19.95-12.1 16.5-12.8L16.5-12.8Q12.3-13.7 9.55-14.68 6.8-15.65 4.75-17.9 2.7-20.15 2.7-24L2.7-24Q2.7-29.65 7.08-32.33 11.45-35 18.15-35L18.15-35ZM74.55 0L62.85 0 61.4-4.85 49.35-4.85 47.9 0 36.6 0 49.15-34.4 62-34.4 74.55 0ZM55.3-24.8L51.65-12.55 59.1-12.55 55.5-24.8 55.3-24.8ZM119.2 0L108.25 0 108.25-12.4Q108.25-14.7 108.42-17.13 108.59-19.55 108.8-21.2 109-22.85 109.05-23.3L109.05-23.3 108.84-23.3 102.5 0 93.84 0 87.45-23.25 87.25-23.25Q87.3-22.8 87.52-21.18 87.75-19.55 87.95-17.13 88.15-14.7 88.15-12.4L88.15-12.4 88.15 0 78 0 78-34.4 93.59-34.4 98.8-14.55 99-14.55 104.15-34.4 119.2-34.4 119.2 0Z" opacity="1" transform="matrix(1,0,0,1,0,0)" fill="#000000" class="undefined-text-0" data-fill-palette-color="primary" id="text-0"></path></svg></g></svg></g><g transform="matrix(1,0,0,1,0,148.69357497575393)"><svg viewBox="0 0 395.52 22.459521496672068" height="22.459521496672068" width="395.52"><g transform="matrix(1,0,0,1,0,0)"><svg width="395.52" viewBox="3.1500000953674316 -36.29999923706055 833.7799682617188 47.349998474121094" height="22.459521496672068" data-palette-color="#dcdcdc"><path d="M15.15 0.6L15.15 0.6Q11.6 0.6 8.55-0.68 5.5-1.95 3.15-4.25L3.15-4.25 6.05-7.65Q7.95-5.9 10.35-4.83 12.75-3.75 15.45-3.75L15.45-3.75Q18.6-3.75 20.28-5.03 21.95-6.3 21.95-8.35L21.95-8.35Q21.95-9.55 21.53-10.35 21.1-11.15 20.35-11.75 19.6-12.35 18.55-12.83 17.5-13.3 16.25-13.8L16.25-13.8 11.65-15.85Q10.4-16.35 9.15-17.07 7.9-17.8 6.9-18.82 5.9-19.85 5.28-21.23 4.65-22.6 4.65-24.4L4.65-24.4Q4.65-26.3 5.45-27.95 6.25-29.6 7.73-30.8 9.2-32 11.23-32.68 13.25-33.35 15.7-33.35L15.7-33.35Q18.75-33.35 21.4-32.25 24.05-31.15 25.95-29.25L25.95-29.25 23.35-26.05Q21.75-27.45 19.88-28.23 18-29 15.45-29L15.45-29Q12.85-29 11.28-27.85 9.7-26.7 9.7-24.7L9.7-24.7Q9.7-23.65 10.18-22.88 10.65-22.1 11.45-21.53 12.25-20.95 13.28-20.53 14.3-20.1 15.4-19.65L15.4-19.65 19.85-17.7Q21.4-17.1 22.7-16.32 24-15.55 24.98-14.53 25.95-13.5 26.5-12.13 27.05-10.75 27.05-8.95L27.05-8.95Q27.05-7 26.25-5.25 25.45-3.5 23.9-2.2 22.35-0.9 20.15-0.15 17.95 0.6 15.15 0.6ZM47.25 0.6L47.25 0.6Q44.4 0.6 41.92-0.25 39.45-1.1 37.65-2.75 35.85-4.4 34.82-6.78 33.8-9.15 33.8-12.2L33.8-12.2Q33.8-15.25 34.9-17.65 36-20.05 37.9-21.7 39.8-23.35 42.27-24.2 44.75-25.05 47.55-25.05L47.55-25.05Q50.55-25.05 52.8-24.03 55.05-23 56.55-21.55L56.55-21.55 54.15-18.4Q52.7-19.6 51.15-20.28 49.6-20.95 47.8-20.95L47.8-20.95Q45.85-20.95 44.2-20.33 42.55-19.7 41.37-18.55 40.2-17.4 39.55-15.78 38.9-14.15 38.9-12.2L38.9-12.2Q38.9-10.25 39.52-8.63 40.15-7 41.32-5.85 42.5-4.7 44.1-4.08 45.7-3.45 47.65-3.45L47.65-3.45Q49.9-3.45 51.67-4.3 53.45-5.15 54.9-6.35L54.9-6.35 57.05-3.15Q54.95-1.35 52.45-0.38 49.95 0.6 47.25 0.6ZM69.34 0L64.4 0 64.4-35.45 69.34-35.45 69.34-26.05 69.05-20.55 69.2-20.55Q70.95-22.45 73.07-23.75 75.2-25.05 78.05-25.05L78.05-25.05Q82.34-25.05 84.34-22.5 86.34-19.95 86.34-15.15L86.34-15.15 86.34 0 81.4 0 81.4-14.5Q81.4-17.7 80.25-19.23 79.09-20.75 76.3-20.75L76.3-20.75Q74.34-20.75 72.8-19.78 71.25-18.8 69.34-16.85L69.34-16.85 69.34 0ZM106.49 0.6L106.49 0.6Q103.69 0.6 101.29-0.25 98.89-1.1 97.09-2.75 95.29-4.4 94.27-6.8 93.24-9.2 93.24-12.25L93.24-12.25Q93.24-15.25 94.29-17.63 95.34-20 97.07-21.65 98.79-23.3 101.04-24.18 103.29-25.05 105.74-25.05L105.74-25.05Q108.44-25.05 110.54-24.2 112.64-23.35 114.07-21.83 115.49-20.3 116.24-18.18 116.99-16.05 116.99-13.5L116.99-13.5Q116.99-12.7 116.94-12 116.89-11.3 116.79-10.8L116.79-10.8 98.19-10.8Q98.59-7 101.07-5.15 103.54-3.3 107.14-3.3L107.14-3.3Q109.19-3.3 110.89-3.88 112.59-4.45 114.24-5.45L114.24-5.45 115.99-2.3Q114.09-1.05 111.72-0.23 109.34 0.6 106.49 0.6ZM105.89-21.15L105.89-21.15Q104.49-21.15 103.24-20.73 101.99-20.3 100.99-19.45 99.99-18.6 99.29-17.35 98.59-16.1 98.29-14.45L98.29-14.45 112.54-14.45Q112.29-17.8 110.52-19.48 108.74-21.15 105.89-21.15ZM133.34 0.6L133.34 0.6Q130.94 0.6 129.02-0.25 127.09-1.1 125.69-2.75 124.29-4.4 123.54-6.78 122.79-9.15 122.79-12.2L122.79-12.2Q122.79-15.2 123.72-17.57 124.64-19.95 126.17-21.6 127.69-23.25 129.67-24.15 131.64-25.05 133.74-25.05L133.74-25.05Q135.89-25.05 137.56-24.25 139.24-23.45 140.74-22L140.74-22 140.89-22 140.64-26.35 140.64-35.45 145.59-35.45 145.59 0 141.54 0 141.14-3 140.99-3Q139.54-1.55 137.54-0.48 135.54 0.6 133.34 0.6ZM134.49-3.5L134.49-3.5Q137.79-3.5 140.64-6.8L140.64-6.8 140.64-18.4Q139.19-19.8 137.74-20.35 136.29-20.9 134.84-20.9L134.84-20.9Q133.39-20.9 132.14-20.3 130.89-19.7 129.94-18.57 128.99-17.45 128.44-15.85 127.89-14.25 127.89-12.25L127.89-12.25Q127.89-8 129.62-5.75 131.34-3.5 134.49-3.5ZM161.99 0.6L161.99 0.6Q157.64 0.6 155.64-1.93 153.64-4.45 153.64-9.3L153.64-9.3 153.64-24.45 158.59-24.45 158.59-9.95Q158.59-6.7 159.74-5.18 160.89-3.65 163.69-3.65L163.69-3.65Q165.59-3.65 167.16-4.58 168.74-5.5 170.54-7.7L170.54-7.7 170.54-24.45 175.49-24.45 175.49 0 171.44 0 171.04-4.05 170.84-4.05Q169.04-1.95 166.91-0.68 164.79 0.6 161.99 0.6ZM200.19 0.6L200.19 0.6Q196.09 0.6 193.94-1.75 191.79-4.1 191.79-8.55L191.79-8.55 191.79-31.5 183.39-31.5 183.39-35.45 196.74-35.45 196.74-8.25Q196.74-5.7 198.01-4.58 199.29-3.45 201.34-3.45L201.34-3.45Q203.24-3.45 205.74-4.5L205.74-4.5 206.94-0.8Q205.19-0.1 203.71 0.25 202.24 0.6 200.19 0.6ZM230.23 0L225.28 0 225.28-20.45 214.33-20.45 214.33-24.45 230.23-24.45 230.23 0ZM227.33-29.2L227.33-29.2Q225.73-29.2 224.68-30.18 223.63-31.15 223.63-32.75L223.63-32.75Q223.63-34.35 224.68-35.33 225.73-36.3 227.33-36.3L227.33-36.3Q228.93-36.3 229.98-35.33 231.03-34.35 231.03-32.75L231.03-32.75Q231.03-31.15 229.98-30.18 228.93-29.2 227.33-29.2ZM249.33 0L244.38 0 244.38-24.45 248.43-24.45 248.83-20.5 249.03-20.5Q250.88-22.4 253.03-23.73 255.18-25.05 258.03-25.05L258.03-25.05Q262.33-25.05 264.33-22.5 266.33-19.95 266.33-15.15L266.33-15.15 266.33 0 261.38 0 261.38-14.5Q261.38-17.7 260.23-19.23 259.08-20.75 256.28-20.75L256.28-20.75Q254.33-20.75 252.78-19.78 251.23-18.8 249.33-16.85L249.33-16.85 249.33 0ZM284.53 11.05L284.53 11.05Q279.28 11.05 276.3 9.35 273.33 7.65 273.33 4.4L273.33 4.4Q273.33 1.3 277.28-0.9L277.28-0.9 277.28-1.1Q276.28-1.65 275.53-2.63 274.78-3.6 274.78-5.15L274.78-5.15Q274.78-6.35 275.55-7.58 276.33-8.8 277.68-9.75L277.68-9.75 277.68-9.95Q276.38-10.9 275.5-12.48 274.63-14.05 274.63-16.25L274.63-16.25Q274.63-18.3 275.43-19.93 276.23-21.55 277.58-22.7 278.93-23.85 280.7-24.45 282.48-25.05 284.48-25.05L284.48-25.05Q286.53-25.05 288.18-24.45L288.18-24.45 298.23-24.45 298.23-20.55 292.28-20.55Q292.98-19.75 293.53-18.57 294.08-17.4 294.08-16.1L294.08-16.1Q294.08-14.1 293.33-12.55 292.58-11 291.28-9.93 289.98-8.85 288.23-8.3 286.48-7.75 284.48-7.75L284.48-7.75Q283.58-7.75 282.55-7.95 281.53-8.15 280.53-8.55L280.53-8.55Q278.83-7.45 278.83-6L278.83-6Q278.83-3.45 283.68-3.45L283.68-3.45 288.88-3.45Q293.68-3.45 296.03-2.1 298.38-0.75 298.38 2.4L298.38 2.4Q298.38 4.2 297.4 5.78 296.43 7.35 294.63 8.53 292.83 9.7 290.25 10.38 287.68 11.05 284.53 11.05ZM284.48-10.95L284.48-10.95Q286.58-10.95 288.08-12.35 289.58-13.75 289.58-16.25L289.58-16.25Q289.58-18.65 288.08-20.1 286.58-21.55 284.48-21.55L284.48-21.55Q282.38-21.55 280.85-20.1 279.33-18.65 279.33-16.25L279.33-16.25Q279.33-13.75 280.85-12.35 282.38-10.95 284.48-10.95ZM285.03 7.6L285.03 7.6Q286.98 7.6 288.55 7.23 290.13 6.85 291.23 6.25 292.33 5.65 292.93 4.88 293.53 4.1 293.53 3.25L293.53 3.25Q293.53 1.65 292.23 1.1 290.93 0.55 288.33 0.55L288.33 0.55 283.98 0.55Q282.83 0.55 281.93 0.48 281.03 0.4 280.28 0.15L280.28 0.15Q278.73 1 278.1 1.93 277.48 2.85 277.48 3.8L277.48 3.8Q277.48 5.55 279.43 6.58 281.38 7.6 285.03 7.6ZM341.72-17.85L341.72-17.85 340.37-13.35 349.42-13.35 348.07-17.85Q347.27-20.55 346.47-23.25 345.67-25.95 344.97-28.75L344.97-28.75 344.77-28.75Q344.07-25.95 343.3-23.25 342.52-20.55 341.72-17.85ZM336.37 0L331.27 0 342.07-32.75 347.87-32.75 358.67 0 353.37 0 350.57-9.4 339.17-9.4 336.37 0ZM375.27 0.6L375.27 0.6Q371.77 0.6 368.67-0.53 365.57-1.65 363.32-3.2L363.32-3.2 365.52-6.4Q367.67-4.9 370.2-4.05 372.72-3.2 375.92-3.2L375.92-3.2Q378.77-3.2 380.12-4.17 381.47-5.15 381.47-6.55L381.47-6.55Q381.47-7.2 381.22-7.75 380.97-8.3 380.2-8.78 379.42-9.25 378.02-9.7 376.62-10.15 374.32-10.65L374.32-10.65Q369.47-11.65 367.15-13.38 364.82-15.1 364.82-17.9L364.82-17.9Q364.82-19.45 365.5-20.75 366.17-22.05 367.5-23 368.82-23.95 370.77-24.5 372.72-25.05 375.27-25.05L375.27-25.05Q378.17-25.05 380.8-24.08 383.42-23.1 385.27-21.85L385.27-21.85 382.97-18.75Q381.22-19.9 379.15-20.58 377.07-21.25 374.82-21.25L374.82-21.25Q372.02-21.25 370.9-20.35 369.77-19.45 369.77-18.15L369.77-18.15Q369.77-16.7 371.32-15.95 372.87-15.2 376.47-14.45L376.47-14.45Q379.47-13.8 381.4-13.05 383.32-12.3 384.45-11.4 385.57-10.5 386.02-9.38 386.47-8.25 386.47-6.85L386.47-6.85Q386.47-5.3 385.72-3.95 384.97-2.6 383.55-1.58 382.12-0.55 380.05 0.03 377.97 0.6 375.27 0.6ZM405.27 0.6L405.27 0.6Q401.77 0.6 398.67-0.53 395.57-1.65 393.32-3.2L393.32-3.2 395.52-6.4Q397.67-4.9 400.19-4.05 402.72-3.2 405.92-3.2L405.92-3.2Q408.77-3.2 410.12-4.17 411.47-5.15 411.47-6.55L411.47-6.55Q411.47-7.2 411.22-7.75 410.97-8.3 410.19-8.78 409.42-9.25 408.02-9.7 406.62-10.15 404.32-10.65L404.32-10.65Q399.47-11.65 397.14-13.38 394.82-15.1 394.82-17.9L394.82-17.9Q394.82-19.45 395.49-20.75 396.17-22.05 397.49-23 398.82-23.95 400.77-24.5 402.72-25.05 405.27-25.05L405.27-25.05Q408.17-25.05 410.79-24.08 413.42-23.1 415.27-21.85L415.27-21.85 412.97-18.75Q411.22-19.9 409.14-20.58 407.07-21.25 404.82-21.25L404.82-21.25Q402.02-21.25 400.89-20.35 399.77-19.45 399.77-18.15L399.77-18.15Q399.77-16.7 401.32-15.95 402.87-15.2 406.47-14.45L406.47-14.45Q409.47-13.8 411.39-13.05 413.32-12.3 414.44-11.4 415.57-10.5 416.02-9.38 416.47-8.25 416.47-6.85L416.47-6.85Q416.47-5.3 415.72-3.95 414.97-2.6 413.54-1.58 412.12-0.55 410.04 0.03 407.97 0.6 405.27 0.6ZM440.22 0L435.27 0 435.27-20.45 424.32-20.45 424.32-24.45 440.22-24.45 440.22 0ZM437.32-29.2L437.32-29.2Q435.72-29.2 434.67-30.18 433.62-31.15 433.62-32.75L433.62-32.75Q433.62-34.35 434.67-35.33 435.72-36.3 437.32-36.3L437.32-36.3Q438.92-36.3 439.97-35.33 441.02-34.35 441.02-32.75L441.02-32.75Q441.02-31.15 439.97-30.18 438.92-29.2 437.32-29.2ZM465.26 0.6L465.26 0.6Q461.76 0.6 458.66-0.53 455.56-1.65 453.31-3.2L453.31-3.2 455.51-6.4Q457.66-4.9 460.19-4.05 462.71-3.2 465.91-3.2L465.91-3.2Q468.76-3.2 470.11-4.17 471.46-5.15 471.46-6.55L471.46-6.55Q471.46-7.2 471.21-7.75 470.96-8.3 470.19-8.78 469.41-9.25 468.01-9.7 466.61-10.15 464.31-10.65L464.31-10.65Q459.46-11.65 457.14-13.38 454.81-15.1 454.81-17.9L454.81-17.9Q454.81-19.45 455.49-20.75 456.16-22.05 457.49-23 458.81-23.95 460.76-24.5 462.71-25.05 465.26-25.05L465.26-25.05Q468.16-25.05 470.79-24.08 473.41-23.1 475.26-21.85L475.26-21.85 472.96-18.75Q471.21-19.9 469.14-20.58 467.06-21.25 464.81-21.25L464.81-21.25Q462.01-21.25 460.89-20.35 459.76-19.45 459.76-18.15L459.76-18.15Q459.76-16.7 461.31-15.95 462.86-15.2 466.46-14.45L466.46-14.45Q469.46-13.8 471.39-13.05 473.31-12.3 474.44-11.4 475.56-10.5 476.01-9.38 476.46-8.25 476.46-6.85L476.46-6.85Q476.46-5.3 475.71-3.95 474.96-2.6 473.54-1.58 472.11-0.55 470.04 0.03 467.96 0.6 465.26 0.6ZM499.56 0.6L499.56 0.6Q496.86 0.6 494.99-0.15 493.11-0.9 491.99-2.25 490.86-3.6 490.36-5.48 489.86-7.35 489.86-9.65L489.86-9.65 489.86-20.45 483.16-20.45 483.16-24.2 490.06-24.45 490.71-32.2 494.81-32.2 494.81-24.45 506.36-24.45 506.36-20.45 494.81-20.45 494.81-9.65Q494.81-6.5 496.09-4.95 497.36-3.4 500.71-3.4L500.71-3.4Q502.31-3.4 503.66-3.68 505.01-3.95 506.31-4.45L506.31-4.45 507.31-0.8Q505.66-0.25 503.81 0.18 501.96 0.6 499.56 0.6ZM522.01 0.6L522.01 0.6Q520.26 0.6 518.73 0.1 517.21-0.4 516.11-1.33 515.01-2.25 514.38-3.55 513.76-4.85 513.76-6.45L513.76-6.45Q513.76-8.5 514.73-10.05 515.71-11.6 517.78-12.7 519.86-13.8 523.13-14.5 526.41-15.2 531.01-15.55L531.01-15.55Q530.91-17.8 529.53-19.4 528.16-21 524.91-21L524.91-21Q522.66-21 520.53-20.15 518.41-19.3 516.61-18.25L516.61-18.25 514.76-21.6Q515.76-22.2 517.01-22.83 518.26-23.45 519.68-23.95 521.11-24.45 522.63-24.75 524.16-25.05 525.76-25.05L525.76-25.05Q530.86-25.05 533.41-22.3 535.96-19.55 535.96-14.7L535.96-14.7 535.96 0 531.91 0 531.51-3.15 531.36-3.15Q529.41-1.65 526.98-0.53 524.56 0.6 522.01 0.6ZM523.41-3.35L523.41-3.35Q525.36-3.35 527.23-4.2 529.11-5.05 531.01-6.6L531.01-6.6 531.01-12.4Q527.41-12.1 525.01-11.63 522.61-11.15 521.18-10.43 519.76-9.7 519.16-8.8 518.56-7.9 518.56-6.8L518.56-6.8Q518.56-4.95 519.98-4.15 521.41-3.35 523.41-3.35ZM549.3 0L544.35 0 544.35-24.45 548.4-24.45 548.8-20.5 549-20.5Q550.85-22.4 553-23.73 555.15-25.05 558-25.05L558-25.05Q562.3-25.05 564.3-22.5 566.3-19.95 566.3-15.15L566.3-15.15 566.3 0 561.35 0 561.35-14.5Q561.35-17.7 560.2-19.23 559.05-20.75 556.25-20.75L556.25-20.75Q554.3-20.75 552.75-19.78 551.2-18.8 549.3-16.85L549.3-16.85 549.3 0ZM589.55 0.6L589.55 0.6Q586.85 0.6 584.98-0.15 583.1-0.9 581.98-2.25 580.85-3.6 580.35-5.48 579.85-7.35 579.85-9.65L579.85-9.65 579.85-20.45 573.15-20.45 573.15-24.2 580.05-24.45 580.7-32.2 584.8-32.2 584.8-24.45 596.35-24.45 596.35-20.45 584.8-20.45 584.8-9.65Q584.8-6.5 586.08-4.95 587.35-3.4 590.7-3.4L590.7-3.4Q592.3-3.4 593.65-3.68 595-3.95 596.3-4.45L596.3-4.45 597.3-0.8Q595.65-0.25 593.8 0.18 591.95 0.6 589.55 0.6ZM637.85 0L633.35 0 633.35-32.75 639.15-32.75 643.4-19.4 644.85-14.3 645.05-14.3 646.5-19.4 650.75-32.75 656.55-32.75 656.55 0 651.95 0 651.95-14.75Q651.95-16 652.05-17.7 652.15-19.4 652.27-21.15 652.4-22.9 652.52-24.53 652.65-26.15 652.75-27.3L652.75-27.3 652.6-27.3 650.55-20.25 646.4-8.7 643.3-8.7 639.2-20.25 637.2-27.3 637.05-27.3Q637.2-26.15 637.32-24.53 637.45-22.9 637.57-21.15 637.7-19.4 637.77-17.7 637.85-16 637.85-14.75L637.85-14.75 637.85 0ZM671.99 0.6L671.99 0.6Q670.24 0.6 668.72 0.1 667.19-0.4 666.09-1.33 664.99-2.25 664.37-3.55 663.74-4.85 663.74-6.45L663.74-6.45Q663.74-8.5 664.72-10.05 665.69-11.6 667.77-12.7 669.84-13.8 673.12-14.5 676.39-15.2 680.99-15.55L680.99-15.55Q680.89-17.8 679.52-19.4 678.14-21 674.89-21L674.89-21Q672.64-21 670.52-20.15 668.39-19.3 666.59-18.25L666.59-18.25 664.74-21.6Q665.74-22.2 666.99-22.83 668.24-23.45 669.67-23.95 671.09-24.45 672.62-24.75 674.14-25.05 675.74-25.05L675.74-25.05Q680.84-25.05 683.39-22.3 685.94-19.55 685.94-14.7L685.94-14.7 685.94 0 681.89 0 681.49-3.15 681.34-3.15Q679.39-1.65 676.97-0.53 674.54 0.6 671.99 0.6ZM673.39-3.35L673.39-3.35Q675.34-3.35 677.22-4.2 679.09-5.05 680.99-6.6L680.99-6.6 680.99-12.4Q677.39-12.1 674.99-11.63 672.59-11.15 671.17-10.43 669.74-9.7 669.14-8.8 668.54-7.9 668.54-6.8L668.54-6.8Q668.54-4.95 669.97-4.15 671.39-3.35 673.39-3.35ZM699.29 0L694.34 0 694.34-24.45 698.39-24.45 698.79-20.5 698.99-20.5Q700.84-22.4 702.99-23.73 705.14-25.05 707.99-25.05L707.99-25.05Q712.29-25.05 714.29-22.5 716.29-19.95 716.29-15.15L716.29-15.15 716.29 0 711.34 0 711.34-14.5Q711.34-17.7 710.19-19.23 709.04-20.75 706.24-20.75L706.24-20.75Q704.29-20.75 702.74-19.78 701.19-18.8 699.29-16.85L699.29-16.85 699.29 0ZM731.99 0.6L731.99 0.6Q730.24 0.6 728.71 0.1 727.19-0.4 726.09-1.33 724.99-2.25 724.36-3.55 723.74-4.85 723.74-6.45L723.74-6.45Q723.74-8.5 724.71-10.05 725.69-11.6 727.76-12.7 729.84-13.8 733.11-14.5 736.39-15.2 740.99-15.55L740.99-15.55Q740.89-17.8 739.51-19.4 738.14-21 734.89-21L734.89-21Q732.64-21 730.51-20.15 728.39-19.3 726.59-18.25L726.59-18.25 724.74-21.6Q725.74-22.2 726.99-22.83 728.24-23.45 729.66-23.95 731.09-24.45 732.61-24.75 734.14-25.05 735.74-25.05L735.74-25.05Q740.84-25.05 743.39-22.3 745.94-19.55 745.94-14.7L745.94-14.7 745.94 0 741.89 0 741.49-3.15 741.34-3.15Q739.39-1.65 736.96-0.53 734.54 0.6 731.99 0.6ZM733.39-3.35L733.39-3.35Q735.34-3.35 737.21-4.2 739.09-5.05 740.99-6.6L740.99-6.6 740.99-12.4Q737.39-12.1 734.99-11.63 732.59-11.15 731.16-10.43 729.74-9.7 729.14-8.8 728.54-7.9 728.54-6.8L728.54-6.8Q728.54-4.95 729.96-4.15 731.39-3.35 733.39-3.35ZM764.49 11.05L764.49 11.05Q759.24 11.05 756.26 9.35 753.29 7.65 753.29 4.4L753.29 4.4Q753.29 1.3 757.24-0.9L757.24-0.9 757.24-1.1Q756.24-1.65 755.49-2.63 754.74-3.6 754.74-5.15L754.74-5.15Q754.74-6.35 755.51-7.58 756.29-8.8 757.64-9.75L757.64-9.75 757.64-9.95Q756.34-10.9 755.46-12.48 754.59-14.05 754.59-16.25L754.59-16.25Q754.59-18.3 755.39-19.93 756.19-21.55 757.54-22.7 758.89-23.85 760.66-24.45 762.44-25.05 764.44-25.05L764.44-25.05Q766.49-25.05 768.14-24.45L768.14-24.45 778.19-24.45 778.19-20.55 772.24-20.55Q772.94-19.75 773.49-18.57 774.04-17.4 774.04-16.1L774.04-16.1Q774.04-14.1 773.29-12.55 772.54-11 771.24-9.93 769.94-8.85 768.19-8.3 766.44-7.75 764.44-7.75L764.44-7.75Q763.54-7.75 762.51-7.95 761.49-8.15 760.49-8.55L760.49-8.55Q758.79-7.45 758.79-6L758.79-6Q758.79-3.45 763.64-3.45L763.64-3.45 768.84-3.45Q773.64-3.45 775.99-2.1 778.34-0.75 778.34 2.4L778.34 2.4Q778.34 4.2 777.36 5.78 776.39 7.35 774.59 8.53 772.79 9.7 770.21 10.38 767.64 11.05 764.49 11.05ZM764.44-10.95L764.44-10.95Q766.54-10.95 768.04-12.35 769.54-13.75 769.54-16.25L769.54-16.25Q769.54-18.65 768.04-20.1 766.54-21.55 764.44-21.55L764.44-21.55Q762.34-21.55 760.81-20.1 759.29-18.65 759.29-16.25L759.29-16.25Q759.29-13.75 760.81-12.35 762.34-10.95 764.44-10.95ZM764.99 7.6L764.99 7.6Q766.94 7.6 768.51 7.23 770.09 6.85 771.19 6.25 772.29 5.65 772.89 4.88 773.49 4.1 773.49 3.25L773.49 3.25Q773.49 1.65 772.19 1.1 770.89 0.55 768.29 0.55L768.29 0.55 763.94 0.55Q762.79 0.55 761.89 0.48 760.99 0.4 760.24 0.15L760.24 0.15Q758.69 1 758.06 1.93 757.44 2.85 757.44 3.8L757.44 3.8Q757.44 5.55 759.39 6.58 761.34 7.6 764.99 7.6ZM796.43 0.6L796.43 0.6Q793.63 0.6 791.23-0.25 788.83-1.1 787.03-2.75 785.23-4.4 784.21-6.8 783.18-9.2 783.18-12.25L783.18-12.25Q783.18-15.25 784.23-17.63 785.28-20 787.01-21.65 788.73-23.3 790.98-24.18 793.23-25.05 795.68-25.05L795.68-25.05Q798.38-25.05 800.48-24.2 802.58-23.35 804.01-21.83 805.43-20.3 806.18-18.18 806.93-16.05 806.93-13.5L806.93-13.5Q806.93-12.7 806.88-12 806.83-11.3 806.73-10.8L806.73-10.8 788.13-10.8Q788.53-7 791.01-5.15 793.48-3.3 797.08-3.3L797.08-3.3Q799.13-3.3 800.83-3.88 802.53-4.45 804.18-5.45L804.18-5.45 805.93-2.3Q804.03-1.05 801.66-0.23 799.28 0.6 796.43 0.6ZM795.83-21.15L795.83-21.15Q794.43-21.15 793.18-20.73 791.93-20.3 790.93-19.45 789.93-18.6 789.23-17.35 788.53-16.1 788.23-14.45L788.23-14.45 802.48-14.45Q802.23-17.8 800.46-19.48 798.68-21.15 795.83-21.15ZM821.78 0L816.83 0 816.83-24.45 820.93-24.45 821.33-18.75 821.48-18.75Q823.38-21.75 826.11-23.4 828.83-25.05 832.13-25.05L832.13-25.05Q833.58-25.05 834.68-24.83 835.78-24.6 836.93-24.05L836.93-24.05 835.83-19.8Q834.58-20.2 833.68-20.4 832.78-20.6 831.38-20.6L831.38-20.6Q828.73-20.6 826.28-19.1 823.83-17.6 821.78-13.9L821.78-13.9 821.78 0Z" opacity="1" transform="matrix(1,0,0,1,0,0)" fill="#000000" class="undefined-text-1" data-fill-palette-color="secondary" id="text-1"></path></svg></g></svg></g></svg></g></svg></g><g><svg viewBox="0 0 204.6202830060647 236.53357932489274" height="236.53357932489274" width="204.6202830060647"><g><svg xmlns="http://www.w3.org/2000/svg" xmlns:xlink="http://www.w3.org/1999/xlink" version="1.1" x="0" y="0" viewBox="17.299999237060547 12.199999809265137 65.39999389648438 75.60000610351562" style="enable-background:new 0 0 100 100;" xml:space="preserve" height="236.53357932489274" width="204.6202830060647" class="icon-icon-0" data-fill-palette-color="accent" id="icon-0"><path d="M50 12.2L17.3 31.1v37.8L50 87.8l32.7-18.9V31.1L50 12.2zM32.1 37.4L50 16l17 21.4H32.1zM67.3 39.4L50 70.4l-18.2-31H67.3zM48.1 71l-27.7-4.5 9.8-25.9L48.1 71zM68.9 40.7l10.7 25.9-27.7 4.5L68.9 40.7zM69.2 37.1L52.6 16l27 15.6L69.2 37.1zM29.8 37.1l-9.4-5.5 26.8-15.5L29.8 37.1zM28.8 38.8l-9.5 25V33.3L28.8 38.8zM49 73.2v11.7L20.9 68.7 49 73.2zM51 73.2l28.1-4.5L51 84.9V73.2zM70.3 38.8l10.5-5.6v30.9L70.3 38.8z" fill="#000000" data-fill-palette-color="accent"></path></svg></g></svg></g></svg></g><defs></defs></svg><rect width="395.5199999999999" height="140.0954112779021" fill="none" stroke="none" visibility="hidden"></rect></g></svg></g></svg>